 <svg
      width="75"
      height="28"
      viewBox="0 0 26 26"
      fill="currentColor"
      role="presentation"
      xmlns="http://www.w3.org/2000/svg"
    >
      <rect width="26" height="26" rx="13" fill="white"></rect>
      <g clipPath="url(#clip0_2164_4405)">
        <path
          d="M13.4555 7L6 10.3569L7.85766 17.2306L9.27147 17.0618L8.88273 12.7398L9.34696 12.5387L10.1486 16.9568L12.5648 16.6684L12.1353 11.898L12.595 11.6992L13.4767 16.5598L15.9208 16.2677L15.4506 11.0387L15.9156 10.8376L16.8795 16.1532L19.2957 15.8648V8.4223L13.4555 7Z"
          fill="black"
        ></path>
        <path
          d="M13.6328 17.4247L13.7559 18.1014L19.2979 18.9997V16.748L13.6358 17.424L13.6328 17.4247Z"
          fill="black"
        ></path>
        <path
          d="M19.2969 7.05211V7H19.5716V7.05211H19.2969ZM19.4033 7.34126V7.03009H19.4645V7.34126H19.4033ZM19.6298 7.34126V7H19.6902V7.34126H19.6298ZM19.7966 7.34126L19.6411 7H19.7037L19.8124 7.25099L19.9211 7H19.9845L19.829 7.34126H19.7966ZM19.9347 7.34126V7H19.9959V7.34126H19.9347Z"
          fill="black"
        ></path>
      </g>
      <defs>
        <clipPath id="clip0_2164_4405">
          <rect
            width="14"
            height="12"
            fill="white"
            transform="translate(6 7)"
          ></rect>
        </clipPath>
      </defs>
    </svg>